<svg xmlns="http://www.w3.org/2000/svg" viewBox="0 0 512 512">
  <defs>
    <linearGradient id="bg" x1="0" y1="0" x2="0" y2="1">
      <stop offset="0" stop-color="#24e776"/>
      <stop offset="1" stop-color="#12b859"/>
    </linearGradient>
  </defs>
  <!-- squircle approximated by a high-radius rounded rect -->
  <rect x="15" y="15" width="482" height="482" rx="132" fill="url(#bg)"/>
  <g fill="#020d06" opacity="0.9"><rect x="135.1" y="103.4" width="32.1" height="32.1"/><rect x="166.9" y="103.4" width="32.1" height="32.1"/><rect x="325.6" y="103.4" width="32.1" height="32.1"/><rect x="357.3" y="103.4" width="32.1" height="32.1"/><rect x="135.1" y="135.1" width="32.1" height="32.1"/><rect x="166.9" y="135.1" width="32.1" height="32.1"/><rect x="325.6" y="135.1" width="32.1" height="32.1"/><rect x="357.3" y="135.1" width="32.1" height="32.1"/><rect x="135.1" y="166.9" width="32.1" height="32.1"/><rect x="166.9" y="166.9" width="32.1" height="32.1"/><rect x="325.6" y="166.9" width="32.1" height="32.1"/><rect x="357.3" y="166.9" width="32.1" height="32.1"/><rect x="135.1" y="198.6" width="32.1" height="32.1"/><rect x="166.9" y="198.6" width="32.1" height="32.1"/><rect x="325.6" y="198.6" width="32.1" height="32.1"/><rect x="357.3" y="198.6" width="32.1" height="32.1"/><rect x="135.1" y="230.4" width="32.1" height="32.1"/><rect x="166.9" y="230.4" width="32.1" height="32.1"/><rect x="325.6" y="230.4" width="32.1" height="32.1"/><rect x="357.3" y="230.4" width="32.1" height="32.1"/><rect x="135.1" y="262.1" width="32.1" height="32.1"/><rect x="166.9" y="262.1" width="32.1" height="32.1"/><rect x="325.6" y="262.1" width="32.1" height="32.1"/><rect x="357.3" y="262.1" width="32.1" height="32.1"/><rect x="135.1" y="293.8" width="32.1" height="32.1"/><rect x="166.9" y="293.8" width="32.1" height="32.1"/><rect x="325.6" y="293.8" width="32.1" height="32.1"/><rect x="357.3" y="293.8" width="32.1" height="32.1"/><rect x="135.1" y="325.6" width="32.1" height="32.1"/><rect x="166.9" y="325.6" width="32.1" height="32.1"/><rect x="325.6" y="325.6" width="32.1" height="32.1"/><rect x="357.3" y="325.6" width="32.1" height="32.1"/><rect x="135.1" y="357.3" width="32.1" height="32.1"/><rect x="166.9" y="357.3" width="32.1" height="32.1"/><rect x="325.6" y="357.3" width="32.1" height="32.1"/><rect x="357.3" y="357.3" width="32.1" height="32.1"/><rect x="135.1" y="389.1" width="32.1" height="32.1"/><rect x="166.9" y="389.1" width="32.1" height="32.1"/><rect x="325.6" y="389.1" width="32.1" height="32.1"/><rect x="357.3" y="389.1" width="32.1" height="32.1"/><rect x="198.6" y="166.9" width="32.1" height="32.1"/><rect x="198.6" y="198.6" width="32.1" height="32.1"/><rect x="230.4" y="198.6" width="32.1" height="32.1"/><rect x="230.4" y="230.4" width="32.1" height="32.1"/><rect x="230.4" y="262.1" width="32.1" height="32.1"/><rect x="262.1" y="230.4" width="32.1" height="32.1"/><rect x="262.1" y="262.1" width="32.1" height="32.1"/><rect x="262.1" y="293.8" width="32.1" height="32.1"/><rect x="293.8" y="293.8" width="32.1" height="32.1"/><rect x="293.8" y="325.6" width="32.1" height="32.1"/></g>
  <g fill="#03150a"><rect x="129.0" y="97.3" width="32.1" height="32.1"/><rect x="160.8" y="97.3" width="32.1" height="32.1"/><rect x="319.5" y="97.3" width="32.1" height="32.1"/><rect x="351.2" y="97.3" width="32.1" height="32.1"/><rect x="129.0" y="129.0" width="32.1" height="32.1"/><rect x="160.8" y="129.0" width="32.1" height="32.1"/><rect x="319.5" y="129.0" width="32.1" height="32.1"/><rect x="351.2" y="129.0" width="32.1" height="32.1"/><rect x="129.0" y="160.8" width="32.1" height="32.1"/><rect x="160.8" y="160.8" width="32.1" height="32.1"/><rect x="319.5" y="160.8" width="32.1" height="32.1"/><rect x="351.2" y="160.8" width="32.1" height="32.1"/><rect x="129.0" y="192.5" width="32.1" height="32.1"/><rect x="160.8" y="192.5" width="32.1" height="32.1"/><rect x="319.5" y="192.5" width="32.1" height="32.1"/><rect x="351.2" y="192.5" width="32.1" height="32.1"/><rect x="129.0" y="224.3" width="32.1" height="32.1"/><rect x="160.8" y="224.3" width="32.1" height="32.1"/><rect x="319.5" y="224.3" width="32.1" height="32.1"/><rect x="351.2" y="224.3" width="32.1" height="32.1"/><rect x="129.0" y="256.0" width="32.1" height="32.1"/><rect x="160.8" y="256.0" width="32.1" height="32.1"/><rect x="319.5" y="256.0" width="32.1" height="32.1"/><rect x="351.2" y="256.0" width="32.1" height="32.1"/><rect x="129.0" y="287.7" width="32.1" height="32.1"/><rect x="160.8" y="287.7" width="32.1" height="32.1"/><rect x="319.5" y="287.7" width="32.1" height="32.1"/><rect x="351.2" y="287.7" width="32.1" height="32.1"/><rect x="129.0" y="319.5" width="32.1" height="32.1"/><rect x="160.8" y="319.5" width="32.1" height="32.1"/><rect x="319.5" y="319.5" width="32.1" height="32.1"/><rect x="351.2" y="319.5" width="32.1" height="32.1"/><rect x="129.0" y="351.2" width="32.1" height="32.1"/><rect x="160.8" y="351.2" width="32.1" height="32.1"/><rect x="319.5" y="351.2" width="32.1" height="32.1"/><rect x="351.2" y="351.2" width="32.1" height="32.1"/><rect x="129.0" y="383.0" width="32.1" height="32.1"/><rect x="160.8" y="383.0" width="32.1" height="32.1"/><rect x="319.5" y="383.0" width="32.1" height="32.1"/><rect x="351.2" y="383.0" width="32.1" height="32.1"/><rect x="192.5" y="160.8" width="32.1" height="32.1"/><rect x="192.5" y="192.5" width="32.1" height="32.1"/><rect x="224.3" y="192.5" width="32.1" height="32.1"/><rect x="224.3" y="224.3" width="32.1" height="32.1"/><rect x="224.3" y="256.0" width="32.1" height="32.1"/><rect x="256.0" y="224.3" width="32.1" height="32.1"/><rect x="256.0" y="256.0" width="32.1" height="32.1"/><rect x="256.0" y="287.7" width="32.1" height="32.1"/><rect x="287.7" y="287.7" width="32.1" height="32.1"/><rect x="287.7" y="319.5" width="32.1" height="32.1"/></g>
</svg>
